<svg width="290" height="262" viewBox="0 0 290 262" fill="none" xmlns="http://www.w3.org/2000/svg">
<path d="M256.383 236.656C231.99 247.723 187.427 229.846 154.881 224.673C122.334 219.663 102.165 227.521 95.3214 218.648C88.4781 209.775 94.994 184.235 83.6322 162.985C72.2705 141.735 42.7692 124.905 31.8331 96.9756C20.7005 69.2424 28.1332 30.3767 51.4133 12.139C74.6934 -5.93506 114.05 -3.61032 135.202 17.6725C156.55 38.7261 159.923 78.7379 182.483 103.099C205.272 127.263 247.281 135.972 266.141 160.431C285 184.89 280.777 225.393 256.383 236.656Z" fill="#F55C4A"/>
<path d="M21.9448 53.4932C25.8412 46.6499 32.2261 44.8818 43.1949 48.6472C40.9684 43.6376 47.6152 33.7492 58.2239 44.2269C55.0478 27.4299 80.227 25.498 78.9828 41.7385C85.2694 33.8802 101.903 38.366 95.4524 47.7304C105.177 45.3074 109.106 47.5667 115.491 53.5259H21.9448V53.4932Z" fill="#FAF6EB"/>
<path d="M96.6639 77.3299H58.3221C56.8814 72.3857 57.7655 66.7867 73.4165 71.3052C78.328 62.17 87.8889 71.2725 96.6639 77.3299Z" fill="#FAF6EB"/>
<path d="M289.323 197.332H218.303C220.497 190.784 233.332 185.381 249.311 189.9C253.993 181.223 261.524 182.794 268.596 192.486C277.961 186.658 288.046 195.204 289.323 197.332Z" fill="#FAF6EB"/>
<path fill-rule="evenodd" clip-rule="evenodd" d="M215.062 201.916C208.874 203.881 212.017 209.382 210.445 215.177C210.151 216.258 209.725 217.24 209.299 218.222L208.939 219.008L209.921 220.252L208.251 220.547C208.251 220.547 208.088 220.907 208.022 221.104C207.531 222.446 207.171 223.854 207.302 225.491C207.662 230.664 212.541 234.201 217.943 233.284C220.137 232.924 221.578 232.203 222.593 231.516L222.364 228.831L224.328 229.387C224.328 229.387 225.441 226.637 225.114 223.919C224.656 220.219 222.56 215.93 221.611 212.918C220.465 209.218 221.447 199.886 215.062 201.916Z" fill="#FAF6EB"/>
<path fill-rule="evenodd" clip-rule="evenodd" d="M216.077 212.82L216.273 238.948L216.077 212.82Z" fill="#FAF6EB"/>
<path d="M216.077 212.82L216.273 238.948" stroke="#1C2628" stroke-width="2.13" stroke-linecap="round" stroke-linejoin="round"/>
<path d="M89.9516 85.7448C96.8603 90.2961 100.724 99.464 96.5329 112.561C92.8329 124.054 76.2323 134.925 91.8506 145.631C117.783 163.476 158.089 129.751 168.633 116.065C183.661 96.5827 204.846 103.721 201.015 110.433C195.645 119.797 192.731 125.069 206.778 129.096C225.834 134.532 256.94 113.118 263.128 144.584C263.849 148.218 263.75 151.951 264.078 155.618" stroke="#1C2628" stroke-width="2.13" stroke-linecap="round" stroke-linejoin="round"/>
<path fill-rule="evenodd" clip-rule="evenodd" d="M122.334 110.204C116.048 113.936 109.63 117.505 103.442 121.434C88.8711 130.668 97.1878 147.563 93.5206 152.868C84.2871 166.292 66.2786 170.156 59.2389 185.348C54.3275 195.957 63.0698 206.533 71.2228 212.198C72.7944 213.311 74.5625 214.817 76.4616 214.621C80.1616 214.228 83.1411 211.052 86.8083 210.528C93.3242 209.578 100.069 211.379 106.585 210.298C120.37 207.941 133.565 202.866 147.284 200.246C158.417 198.118 169.877 198.02 181.042 196.088C184.185 195.531 187.918 190.391 188.966 188.328C190.734 184.825 192.175 181.092 193.092 177.261C195.711 166.62 198.396 151.427 192.764 141.178C187.427 131.519 173.544 138.755 168.469 130.341C162.935 121.173 153.8 109.09 140.932 109.549C137.494 109.68 134.089 110.498 130.684 110.99" fill="#FAF6EB"/>
<path fill-rule="evenodd" clip-rule="evenodd" d="M118.994 113.478C118.994 112.692 118.438 112.037 117.717 112.037C117.03 112.037 115.458 112.43 115.393 113.216C115.164 115.77 114.672 119.961 114.672 119.961C114.672 119.961 116.015 121.893 116.932 119.961C117.488 118.815 117.521 114.951 117.685 114.951C118.405 114.951 118.994 114.297 118.994 113.478Z" fill="#FAF6EB" stroke="#1C2628" stroke-width="2.13" stroke-linecap="round" stroke-linejoin="round"/>
<path fill-rule="evenodd" clip-rule="evenodd" d="M188.54 159.383L177.801 174.183L148.43 192.65L127.475 194.516L136.741 184.923L154.16 181.812L154.848 171.957L141.26 157.419L148.921 143.896L153.145 136.398C153.145 136.398 155.634 134.401 164.933 139.181C169.451 141.506 175.148 146.319 179.798 150.674C184.742 155.291 188.54 159.383 188.54 159.383Z" fill="#47584E" stroke="#1C2628" stroke-width="2.13" stroke-linecap="round" stroke-linejoin="round"/>
<path fill-rule="evenodd" clip-rule="evenodd" d="M179.765 150.674C179.634 152.54 179.143 153.915 178.292 154.341C176.786 155.094 174.919 152.376 168.403 149.888C167.094 149.397 166.897 149.397 162.019 148.087C151.672 145.271 149.674 144.453 148.921 143.896L153.145 136.398C153.145 136.398 155.634 134.401 164.933 139.181C169.418 141.539 175.116 146.352 179.765 150.674Z" fill="#1C2628" stroke="#1C2628" stroke-width="2.13" stroke-linecap="round" stroke-linejoin="round"/>
<path fill-rule="evenodd" clip-rule="evenodd" d="M117.521 106.831C114.411 105.456 115.229 99.8242 119.453 96.7136C123.644 93.6031 130.52 95.3384 132.255 95.2402C142.013 94.7491 145.287 104.899 142.078 114.919C141.161 117.833 133.303 125.102 130.127 123.203C126.886 121.271 133.205 111.972 130.455 109.844" fill="#FAF6EB"/>
<path fill-rule="evenodd" clip-rule="evenodd" d="M133.434 118.357L134.646 128.376L138.182 132.862C138.182 132.862 134.809 137.478 128.948 136.791C123.055 136.136 121.254 132.436 121.254 132.436L120.795 119.404L133.434 118.357Z" fill="#F45B49" stroke="#1C2628" stroke-width="2.13" stroke-linecap="round" stroke-linejoin="round"/>
<path fill-rule="evenodd" clip-rule="evenodd" d="M137.985 114.951C137.592 117.931 136.938 120.485 134.94 122.351C132.615 124.545 128.719 125.757 125.445 125.331C120.435 124.676 116.997 121.762 116.441 117.112C116.31 116.13 116.342 115.082 116.473 113.936C116.899 110.662 116.506 104.081 117.488 103.098C118.831 101.985 125.347 100.479 125.347 100.479C125.347 100.479 131.011 102.607 132.223 102.771C135.169 103.393 138.837 108.436 137.985 114.951Z" fill="#47584E" stroke="#1C2628" stroke-width="2.13" stroke-linecap="round" stroke-linejoin="round"/>
<path fill-rule="evenodd" clip-rule="evenodd" d="M123.382 110.269C122.302 111.579 119.387 114.002 119.879 114.853C120.501 115.966 122.989 114.689 123.218 114.428" fill="#47584E"/>
<path d="M123.382 110.269C122.302 111.579 119.387 114.002 119.879 114.853C120.501 115.966 122.989 114.689 123.218 114.428" stroke="#1C2628" stroke-width="2.13" stroke-linecap="round" stroke-linejoin="round"/>
<path fill-rule="evenodd" clip-rule="evenodd" d="M134.875 130.144L135.268 120.649C135.268 120.649 127.704 118.488 125.871 121.14C124.037 123.792 127.377 131.159 127.377 131.159L132.91 131.225" fill="#49574E"/>
<path fill-rule="evenodd" clip-rule="evenodd" d="M136.741 110.138C136.381 110.204 137.953 108.665 139.786 110.793C141.063 112.299 139.721 116.556 136.774 115.082" fill="#47584E"/>
<path d="M136.741 110.138C136.381 110.204 137.953 108.665 139.786 110.793C141.063 112.299 139.721 116.556 136.774 115.082" stroke="#1C2628" stroke-width="2.13" stroke-linecap="round" stroke-linejoin="round"/>
<path d="M138.444 111.972L138.378 112.234L138.182 112.659L137.822 113.052" stroke="#1C2628" stroke-width="2.13" stroke-linecap="round" stroke-linejoin="round"/>
<path fill-rule="evenodd" clip-rule="evenodd" d="M128.392 125.233L120.468 124.087L120.37 131.061C120.37 131.061 123.186 130.341 125.51 128.998C127.868 127.656 128.392 125.233 128.392 125.233Z" fill="#1C2628" stroke="#1C2628" stroke-width="2.13" stroke-linecap="round" stroke-linejoin="round"/>
<path fill-rule="evenodd" clip-rule="evenodd" d="M187.362 196.35C185.135 209.316 187.853 225.589 175.41 231.909C166.995 236.198 152.818 235.019 140.408 233.251C134.023 232.334 128.097 231.254 123.709 230.664C116.146 229.649 108.517 230.042 101.019 228.503C97.0569 227.685 93.2587 226.899 89.3295 225.95C87.0703 225.393 83.6323 226.408 81.5695 225.426C80.0306 224.673 80.62 216.52 80.2598 214.915C79.8669 213.147 76.036 205.78 76.6253 204.536C77.2147 203.291 84.6146 202.047 85.7933 201.687C95.5507 198.773 99.3816 195.793 109.597 195.368C113.854 195.204 152.949 194.058 157.107 190.456C160.119 187.837 163.558 183.777 163.623 180.175C163.656 179.029 176.917 182.467 184.022 183.81C186.608 184.301 188.442 184.694 188.737 184.857C190.407 185.84 187.591 194.975 187.362 196.35Z" fill="#F3A140" stroke="#1C2628" stroke-width="2.13" stroke-linecap="round" stroke-linejoin="round"/>
<path fill-rule="evenodd" clip-rule="evenodd" d="M187.362 196.35C185.135 209.316 187.853 225.589 175.41 231.909C166.995 236.198 152.818 235.019 140.408 233.251C146.629 225.786 161.069 232.498 172.333 221.988C176.163 218.386 173.184 216.127 174.657 211.575C176.655 205.322 172.005 201.851 172.725 196.481C173.413 191.242 178.717 186.2 184.054 183.842C186.641 184.333 188.475 184.726 188.769 184.89C190.407 185.84 187.591 194.975 187.362 196.35Z" fill="#1C2628" stroke="#1C2628" stroke-width="2.13" stroke-linecap="round" stroke-linejoin="round"/>
<path fill-rule="evenodd" clip-rule="evenodd" d="M162.706 251.587C159.53 255.385 137.625 241.502 132.124 241.699C129.112 241.797 124.986 242.19 120.075 242.747C96.5002 245.366 55.8009 251.423 44.3082 245.562C38.218 242.452 34.3871 239.341 32.357 236.362C19.7511 217.862 74.1041 202.473 74.1041 202.473L80.9801 217.338C80.9801 217.338 119.486 215.21 133.238 217.142C139.95 218.091 147.906 220.612 147.906 220.678C148.037 223.756 165.882 247.756 162.706 251.587Z" fill="#47584E" stroke="#1C2628" stroke-width="2.13" stroke-linecap="round" stroke-linejoin="round"/>
<path fill-rule="evenodd" clip-rule="evenodd" d="M120.075 242.747C96.5002 245.366 55.8009 251.423 44.3082 245.562C38.218 242.452 34.3871 239.341 32.3571 236.362C35.6313 233.611 40.4118 232.236 44.2754 233.415C48.8594 234.823 48.3028 238.752 52.6249 240.389C59.1407 242.91 64.1503 235.412 73.7767 235.347C80.227 235.314 81.1766 240.749 87.9543 240.586C92.1782 240.487 93.4224 238.654 97.7444 237.671C105.406 235.903 112.053 239.145 115.786 240.782C116.801 241.208 118.405 241.895 120.075 242.747Z" fill="#1C2628" stroke="#1C2628" stroke-width="2.13" stroke-linecap="round" stroke-linejoin="round"/>
<path fill-rule="evenodd" clip-rule="evenodd" d="M163.623 180.208C163.623 180.208 179.732 115.115 208.579 131.159C228.683 142.324 205.305 203.455 206.156 225.819C206.352 231.352 225.671 239.407 221.479 241.993C217.256 244.613 183.432 237.966 180.387 237.377C180.322 237.377 179.569 226.113 179.569 219.368C179.569 205.485 179.929 182.271 179.929 182.271L163.623 180.208Z" fill="#47584E" stroke="#1C2628" stroke-width="2.13" stroke-linecap="round" stroke-linejoin="round"/>
<path fill-rule="evenodd" clip-rule="evenodd" d="M140.998 217.502L153.309 244.285L143.715 246.807C143.715 246.807 157.991 254.567 165.096 258.005C167.323 259.085 168.927 259.609 170.106 259.871L147.121 217.305L140.998 217.502Z" fill="#FAF6EB" stroke="#1C2628" stroke-width="2.13" stroke-linecap="round" stroke-linejoin="round"/>
<path fill-rule="evenodd" clip-rule="evenodd" d="M150.853 217.142L147.121 217.273L170.106 259.838C172.693 260.362 173.151 259.445 173.151 259.445L150.853 217.142Z" fill="#1C2628" stroke="#1C2628" stroke-width="2.13" stroke-linecap="round" stroke-linejoin="round"/>
<path fill-rule="evenodd" clip-rule="evenodd" d="M225.278 240.487C219.58 235.019 206.712 225.655 206.712 225.655L208.284 234.201L178.881 231.974L178.816 237.933L228.978 244.94C228.421 243.893 227.308 242.452 225.278 240.487Z" fill="#FAF6EB" stroke="#1C2628" stroke-width="2.13" stroke-linecap="round" stroke-linejoin="round"/>
<path fill-rule="evenodd" clip-rule="evenodd" d="M178.848 237.999L178.816 240.618L229.469 247.56C229.469 247.56 230.091 246.905 229.01 244.973L178.848 237.999Z" fill="#1C2628" stroke="#1C2628" stroke-width="2.13" stroke-linecap="round" stroke-linejoin="round"/>
<path fill-rule="evenodd" clip-rule="evenodd" d="M158.515 191.144C158.515 191.144 144.075 197.627 132.517 198.937C120.959 200.246 109.728 195.466 109.728 195.466L111.038 174.019L106.29 170.189L97.5479 192.945C97.5479 192.945 82.388 224.214 67.49 214.064C52.592 203.946 52.3301 171.269 51.1514 166.521C50.3655 163.378 50.431 151.623 49.3178 142.03C48.7284 137.184 48.8921 134.892 48.8921 134.892C48.8921 134.892 50.9549 132.993 53.1487 137.38L53.6398 143.077L55.2442 148.022C55.2442 148.022 61.9565 143.798 65.0343 144.911C68.1449 146.024 68.1776 150.903 68.1776 151.001C68.1776 151.001 67.6537 152.213 65.6892 151.23C64.7069 150.739 63.3644 148.284 63.3644 148.284L60.4831 151.754L61.1707 156.829L64.1175 155.291C64.1175 155.291 64.7069 154.014 65.8201 152.999C66.9334 151.951 68.5378 152.54 68.5378 152.54L67.4245 158.303L63.0697 161.872L72.4997 188.885C72.4997 188.885 72.6961 188.557 73.0563 187.968C75.1518 184.399 82.6499 171.138 86.3499 157.714C89.9516 144.747 99.0213 140.949 102.034 140.032C102.656 139.836 103.016 139.77 103.016 139.77L149.511 138.821L152.163 170.385L158.515 191.144Z" fill="#47584E" stroke="#1C2628" stroke-width="2.13" stroke-linecap="round" stroke-linejoin="round"/>
<path fill-rule="evenodd" clip-rule="evenodd" d="M104.064 146.777C100.298 150.445 94.1754 154.046 92.2436 157.714C89.8206 162.232 91.5887 163.738 89.4604 172.251C88.3472 176.737 87.3649 180.535 84.3853 184.202C82.0606 187.018 77.3129 191.209 74.497 189.867C74.0713 189.67 73.5147 189.245 73.0236 187.968C75.1191 184.399 82.6172 171.138 86.3171 157.714C89.9188 144.747 98.9886 140.949 102.001 140.032C102.165 139.934 102.361 139.836 102.525 139.77L104.064 146.777Z" fill="#1C2628" stroke="#1C2628" stroke-width="2.13" stroke-linecap="round" stroke-linejoin="round"/>
<path d="M49.547 164.917C28.5916 176.868 69.0617 177.556 70.2732 163.051" stroke="#1C2628" stroke-width="2.13" stroke-linecap="round" stroke-linejoin="round"/>
<path fill-rule="evenodd" clip-rule="evenodd" d="M155.765 168.224C155.044 168.846 154.127 169.272 152.981 169.501C149.674 170.221 132.419 171.989 120.795 173.168C120.697 173.168 120.566 173.201 120.468 173.201C114.378 173.823 109.925 174.249 109.925 174.249C109.925 174.249 109.139 174.118 108.157 173.43C106.618 172.382 104.588 169.992 104.293 164.72C104.064 160.791 105.144 151.787 105.144 151.787L104.064 146.81L102.525 139.803V139.738C102.525 139.738 110.841 138.002 115.098 135.285C119.387 132.567 119.617 128.9 119.617 128.9L135.89 127.557L136.381 127.525C136.381 127.525 138.149 129.915 141.03 131.683C141.489 131.945 141.947 132.207 142.438 132.436C143.224 132.796 144.075 133.091 144.992 133.255C145.582 133.386 146.204 133.484 146.826 133.615C151.148 134.466 156.059 135.448 156.059 135.448L151.868 146.123C151.868 146.123 155.404 151.918 156.419 155.258C158.384 161.774 158.286 166.096 155.765 168.224Z" fill="#F3A140" stroke="#1C2628" stroke-width="2.13" stroke-linecap="round" stroke-linejoin="round"/>
<path d="M180.617 173.987L179.7 184.988" stroke="#1C2628" stroke-width="2.13" stroke-linecap="round" stroke-linejoin="round"/>
<path d="M95.1577 196.285C99.3815 194.811 106.356 194.091 106.356 194.091C106.356 194.091 105.799 198.74 116.899 200.803C127.999 202.866 136.774 201.458 136.774 201.458" stroke="#1C2628" stroke-width="2.13" stroke-linecap="round" stroke-linejoin="round"/>
<path fill-rule="evenodd" clip-rule="evenodd" d="M122.629 91.7367C122.629 89.0518 124.954 86.8581 127.835 86.8581C130.716 86.8581 133.041 89.0518 133.041 91.7367C133.041 94.4216 130.716 96.6154 127.835 96.6154C124.954 96.5827 122.629 94.4216 122.629 91.7367Z" fill="#FAF6EB"/>
<path fill-rule="evenodd" clip-rule="evenodd" d="M117.521 110.138C118.634 110.695 120.108 110.335 121.123 109.647L117.521 110.138Z" fill="#47584E"/>
<path d="M117.521 110.138C118.634 110.695 120.108 110.335 121.123 109.647" stroke="#1C2628" stroke-width="2.13" stroke-linecap="round" stroke-linejoin="round"/>
<path fill-rule="evenodd" clip-rule="evenodd" d="M127.737 109.254C129.669 110.204 130.585 109.68 132.452 108.796L127.737 109.254Z" fill="#47584E"/>
<path d="M127.737 109.254C129.669 110.204 130.585 109.68 132.452 108.796" stroke="#1C2628" stroke-width="2.13" stroke-linecap="round" stroke-linejoin="round"/>
<path d="M65.0343 219.794C62.2839 219.63 59.2388 220.874 56.7504 222.184C55.8008 222.675 53.2142 224.476 54.1637 224.018C65.2308 218.55 77.9022 216.651 90.0498 216.356" stroke="#1C2628" stroke-width="2.13" stroke-linecap="round" stroke-linejoin="round"/>
<path d="M57.8965 239.603C58.6823 244.973 67.6538 242.026 70.6334 241.208C76.6254 239.505 82.5518 237.279 88.7075 236.1C97.7772 234.332 106.912 235.478 115.753 237.737" stroke="#1C2628" stroke-width="2.13" stroke-linecap="round" stroke-linejoin="round"/>
<path d="M96.8604 239.931C101.215 239.079 103.9 239.931 108.32 240.258" stroke="#1C2628" stroke-width="2.13" stroke-linecap="round" stroke-linejoin="round"/>
<path d="M208.874 146.581C206.876 150.445 202.129 157.321 205.534 161.97C208.513 166.063 211.493 158.532 210.478 158.106C209.463 157.681 209.397 160.038 209.037 161.086C208.055 163.804 207.073 166.554 206.451 169.37C205.043 175.886 204.06 192.126 203.602 198.02" stroke="#1C2628" stroke-width="2.13" stroke-linecap="round" stroke-linejoin="round"/>
<path d="M207.204 183.94C207.204 192.126 204.355 204.667 203.766 208.825" stroke="#1C2628" stroke-width="2.13" stroke-linecap="round" stroke-linejoin="round"/>
<path fill-rule="evenodd" clip-rule="evenodd" d="M51.3806 154.668C51.7735 151.951 53.5744 149.561 55.6699 147.989L51.3806 154.668Z" fill="#47584E"/>
<path d="M51.3806 154.668C51.7735 151.951 53.5744 149.561 55.6699 147.989" stroke="#1C2628" stroke-width="2.13" stroke-linecap="round" stroke-linejoin="round"/>
<path fill-rule="evenodd" clip-rule="evenodd" d="M124.692 93.7995H130.782C131.6 93.7995 132.255 94.4544 132.255 95.273C132.255 96.0915 131.6 96.7464 130.782 96.7464H124.692C123.873 96.7464 123.218 96.0915 123.218 95.273C123.218 94.4544 123.873 93.7995 124.692 93.7995Z" fill="#F45B49" stroke="#1C2628" stroke-width="2.13" stroke-linecap="round" stroke-linejoin="round"/>
<path fill-rule="evenodd" clip-rule="evenodd" d="M130.847 177.719C131.993 178.309 149.969 189.114 149.969 189.114C153.243 191.406 150.919 193.469 148.627 196.776L146.891 199.33C144.599 202.604 140.474 199.1 137.199 196.776L123.382 188.033C121.123 185.676 129.701 177.163 130.847 177.719Z" fill="#1C2628" stroke="#1C2628" stroke-width="2.13" stroke-linecap="round" stroke-linejoin="round"/>
<path fill-rule="evenodd" clip-rule="evenodd" d="M158.351 164.164L162.084 175.722C158.646 180.83 149.936 183.548 149.936 183.548C149.936 183.548 140.932 183.711 138.509 185.905C135.955 188.23 147.415 186.953 146.367 187.673C144.272 189.114 141.03 191.439 141.03 191.439L135.038 192.879C135.038 192.879 128.195 191.373 126.493 191.111C124.79 190.849 123.218 192.486 123.218 192.486C123.218 192.486 132.779 197.038 135.792 196.808C149.118 195.761 153.604 193.829 153.604 193.829L160.119 191.242L163.787 180.961" fill="#47584E"/>
<path d="M158.351 164.164L162.084 175.722C158.646 180.83 149.936 183.548 149.936 183.548C149.936 183.548 140.932 183.711 138.509 185.905C135.955 188.23 147.415 186.953 146.367 187.673C144.272 189.114 141.03 191.439 141.03 191.439L135.038 192.879C135.038 192.879 128.195 191.373 126.493 191.111C124.79 190.849 123.218 192.486 123.218 192.486C123.218 192.486 132.779 197.038 135.792 196.808C149.118 195.761 153.604 193.829 153.604 193.829L160.119 191.242L163.787 180.961" stroke="#FAF6EB" stroke-width="2.13" stroke-linecap="round" stroke-linejoin="round"/>
<path d="M163.656 180.339L156.551 200.672" stroke="#1C2628" stroke-width="2.13" stroke-linecap="round" stroke-linejoin="round"/>
<path d="M143.715 209.906C144.468 212.918 148.201 215.439 150.1 217.993" stroke="#1C2628" stroke-width="2.13" stroke-linecap="round" stroke-linejoin="round"/>
<path fill-rule="evenodd" clip-rule="evenodd" d="M137.101 111.972C137.101 111.186 137.658 110.531 138.378 110.531C139.066 110.531 140.638 110.924 140.703 111.71C140.932 114.264 141.423 118.455 141.423 118.455C141.423 118.455 140.081 120.387 139.164 118.455C138.607 117.309 138.575 113.445 138.378 113.445C137.691 113.412 137.101 112.758 137.101 111.972Z" fill="#FAF6EB" stroke="#1C2628" stroke-width="2.13" stroke-linecap="round" stroke-linejoin="round"/>
<path d="M3.01947 173.103C1.31684 181.354 1.38232 191.177 6.06454 198.151C10.7795 205.191 19.7183 210.757 28.2314 210.691C42.8675 210.626 55.5717 197.07 70.175 197.823C77.3456 198.184 79.9978 208.334 84.9092 213.573" stroke="#1C2628" stroke-width="2.13" stroke-linecap="round" stroke-linejoin="round"/>
<path d="M207.204 119.437C215.062 132.567 253.109 104.834 268.105 131.552" stroke="#1C2628" stroke-width="2.13" stroke-linecap="round" stroke-linejoin="round"/>
<path d="M223.902 135.612C238.604 135.678 254.026 127.623 257.202 150.379" stroke="#1C2628" stroke-width="2.13" stroke-linecap="round" stroke-linejoin="round"/>
<path d="M84.7128 88.4952C88.8384 92.2606 91.2941 96.1898 92.4728 103.721" stroke="#1C2628" stroke-width="2.13" stroke-linecap="round" stroke-linejoin="round"/>
<path d="M85.1058 96.5827C92.2764 108.959 85.5969 116.523 81.4713 125.331" stroke="#1C2628" stroke-width="2.13" stroke-linecap="round" stroke-linejoin="round"/>
<path d="M9.53528 194.942C15.0361 204.372 27.0854 207.122 36.1552 205.649" stroke="#1C2628" stroke-width="2.13" stroke-linecap="round" stroke-linejoin="round"/>
<path d="M10.1901 209.906C21.1916 220.514 35.4675 215.374 43.0638 213.082" stroke="#1C2628" stroke-width="2.13" stroke-linecap="round" stroke-linejoin="round"/>
<path d="M179.831 228.667C179.831 228.667 177.277 231.287 174.69 232.236C172.136 233.218 166.832 234.463 164.802 234.594" stroke="#1C2628" stroke-width="2.13" stroke-linecap="round" stroke-linejoin="round"/>
<path fill-rule="evenodd" clip-rule="evenodd" d="M157.173 175.362C152.916 178.702 149.937 179.029 147.939 178.669C145.844 178.276 145.254 177.228 141.947 175.984C140.998 175.624 137.854 174.511 134.22 174.412C127.737 174.249 124.659 177.425 122.269 175.657C121.712 175.264 121.123 174.543 120.795 173.135C132.419 171.989 149.675 170.188 152.982 169.468C154.128 169.239 155.044 168.813 155.765 168.191C156.78 170.778 157.074 173.463 157.173 175.362Z" fill="#1C2628" stroke="#1C2628" stroke-width="2.13" stroke-linecap="round" stroke-linejoin="round"/>
<path fill-rule="evenodd" clip-rule="evenodd" d="M155.339 180.797L152.097 169.665C152.097 169.665 155.437 169.043 156.256 168.224C157.074 167.405 158.024 164.328 158.024 164.328L161.855 175.689C161.855 175.689 160.807 177.621 158.777 178.767C156.714 179.946 155.339 180.797 155.339 180.797Z" fill="#1C2628"/>
<path fill-rule="evenodd" clip-rule="evenodd" d="M169.942 217.731C170.794 218.189 168.894 221.66 166.471 223.003C164.703 223.985 162.837 223.756 163.132 222.577C163.328 221.791 164.409 220.842 164.965 220.35C166.635 218.877 169.255 217.371 169.942 217.731Z" fill="#1C2628" stroke="#1C2628" stroke-width="2.13" stroke-linecap="round" stroke-linejoin="round"/>
<path fill-rule="evenodd" clip-rule="evenodd" d="M170.466 209.283C169.779 208.792 170.335 206.435 171.252 206.206C171.58 206.14 171.94 206.369 172.103 206.468C172.562 206.762 172.889 207.319 172.856 207.843C172.758 208.989 171.023 209.709 170.466 209.283Z" fill="#1C2628" stroke="#1C2628" stroke-width="2.13" stroke-linecap="round" stroke-linejoin="round"/>
<path d="M64.7069 53.4931H115.491" stroke="#1C2628" stroke-width="2.13" stroke-linecap="round" stroke-linejoin="round"/>
<path d="M87.3322 57.8807H123.218" stroke="#1C2628" stroke-width="2.13" stroke-linecap="round" stroke-linejoin="round"/>
<path d="M53.5416 77.3299H83.1739" stroke="#1C2628" stroke-width="2.13" stroke-linecap="round" stroke-linejoin="round"/>
<path d="M64.7069 80.2768H91.1959" stroke="#1C2628" stroke-width="2.13" stroke-linecap="round" stroke-linejoin="round"/>
<path d="M27.3802 197.561L27.5439 197.529L27.1837 207.777C26.5616 207.384 25.6121 207.319 24.6953 207.679C23.3528 208.236 22.5997 209.48 23.0254 210.462C23.4183 211.477 24.8262 211.837 26.1687 211.313C27.5111 210.79 28.2642 209.545 27.8386 208.53C27.8386 208.498 27.8058 208.465 27.7731 208.432L28.1333 197.398L38.4145 195.139L38.0543 205.256C37.4322 204.83 36.4499 204.765 35.5331 205.125C34.1907 205.649 33.4376 206.893 33.8305 207.908C34.2234 208.923 35.6314 209.283 36.9738 208.76C38.3163 208.236 39.0694 206.991 38.6437 205.976L38.611 205.944L38.9711 195.008L48.2046 192.977L47.8772 202.407C47.2551 202.015 46.3055 201.916 45.356 202.309C44.0135 202.833 43.2604 204.077 43.6861 205.092C44.079 206.107 45.4869 206.468 46.8294 205.944C48.1719 205.42 48.9249 204.176 48.4993 203.161C48.4993 203.128 48.4665 203.128 48.4665 203.095L48.8267 192.879L49.0232 192.847L49.1541 189.507L27.3802 194.746V197.561Z" fill="#1C2628" stroke="#1C2628" stroke-width="2.13" stroke-linecap="round" stroke-linejoin="round"/>
<path d="M15.8547 191.046C13.0061 192.192 10.7141 192.355 9.01145 191.57C8.71677 191.439 8.45483 191.242 8.22563 191.078C9.2734 191.209 10.3539 190.784 11.0088 189.867C11.9583 188.524 11.6636 186.658 10.3212 185.709C8.97871 184.759 7.11237 185.054 6.16283 186.396C5.24603 187.673 5.50797 189.376 6.65397 190.391C7.11237 191.078 7.79997 191.766 8.71677 192.192C10.3539 192.978 12.4822 192.912 15.0361 192.061L4.03455 207.417L4.59117 207.81L16.2149 191.57C16.3131 191.439 16.3131 191.275 16.2149 191.177C16.1494 191.046 15.9857 190.98 15.8547 191.046Z" fill="#1C2628" stroke="#1C2628" stroke-width="2.13" stroke-linecap="round" stroke-linejoin="round"/>
<path d="M228.847 128.965C228.847 128.965 219.22 134.368 226.751 139.869C224.099 134.302 231.597 129.194 231.597 129.194C227.602 124.971 231.793 124.741 234.151 121.074C237.916 115.246 232.121 114.46 232.121 114.46C235.1 118.52 228.355 119.666 226.489 123.235C224.787 126.51 226.784 128.016 228.847 128.965Z" fill="#1C2628" stroke="#1C2628" stroke-width="2.13" stroke-linecap="round" stroke-linejoin="round"/>
<path fill-rule="evenodd" clip-rule="evenodd" d="M112.446 142.652C112.086 142.881 112.02 143.765 112.151 144.584C111.66 144.191 111.136 143.863 110.776 143.831C109.761 143.765 110.056 144.715 110.711 145.599C110.219 145.533 109.794 145.566 109.499 145.697C108.484 146.155 109.466 146.974 110.645 147.432C110.056 147.661 109.532 147.989 109.335 148.316C108.746 149.266 109.99 149.397 111.235 149.135C110.874 149.659 110.612 150.183 110.612 150.576C110.645 151.689 111.758 151.132 112.642 150.215C112.61 150.838 112.708 151.427 112.904 151.754C113.527 152.671 114.181 151.591 114.411 150.346C114.738 150.87 115.131 151.361 115.491 151.492C116.539 151.918 116.441 150.641 115.982 149.495C116.539 149.757 117.128 149.953 117.521 149.888C118.634 149.692 117.881 148.644 116.834 147.956C117.456 147.891 118.045 147.694 118.307 147.432C119.126 146.646 117.914 146.221 116.67 146.188C117.161 145.795 117.521 145.304 117.619 144.944C117.881 143.831 116.637 144.125 115.557 144.78C115.72 144.191 115.819 143.569 115.688 143.208C115.295 142.161 114.411 143.077 113.887 144.191C113.723 143.601 113.428 143.045 113.134 142.816C112.839 142.554 112.61 142.521 112.446 142.652ZM113.363 146.581C113.527 146.614 113.69 146.548 113.788 146.45C113.919 146.581 114.083 146.614 114.214 146.581C114.28 146.745 114.378 146.876 114.476 146.941C114.411 147.105 114.443 147.269 114.509 147.4C114.378 147.531 114.312 147.661 114.312 147.792C114.116 147.825 113.985 147.891 113.919 148.022C113.756 147.956 113.592 147.923 113.461 147.989C113.363 147.825 113.232 147.76 113.101 147.727C113.101 147.531 113.068 147.4 112.937 147.301C113.035 147.17 113.068 147.039 113.035 146.908C113.232 146.81 113.297 146.712 113.363 146.581Z" fill="#FAF6EB" stroke="#1C2628" stroke-width="2.13" stroke-linecap="round" stroke-linejoin="round"/>
<path fill-rule="evenodd" clip-rule="evenodd" d="M134.515 149.724C133.958 150.117 133.86 151.427 134.056 152.769C133.303 152.147 132.485 151.656 131.895 151.623C130.323 151.525 130.782 152.999 131.797 154.374C131.044 154.276 130.356 154.308 129.931 154.505C128.326 155.225 129.865 156.502 131.699 157.19C130.782 157.55 129.963 158.041 129.669 158.565C128.719 160.038 130.716 160.267 132.615 159.842C132.059 160.628 131.633 161.479 131.633 162.101C131.666 163.869 133.434 162.952 134.809 161.544C134.777 162.527 134.875 163.443 135.235 163.967C136.217 165.408 137.199 163.705 137.592 161.774C138.084 162.625 138.706 163.345 139.262 163.574C140.867 164.262 140.768 162.265 140.015 160.464C140.899 160.89 141.816 161.151 142.406 161.053C144.141 160.726 142.929 159.121 141.325 158.008C142.307 157.877 143.191 157.615 143.65 157.19C144.927 155.978 143.06 155.291 141.096 155.225C141.849 154.603 142.438 153.883 142.602 153.293C142.995 151.591 141.063 152.016 139.393 153.064C139.688 152.114 139.786 151.198 139.59 150.608C139 148.971 137.592 150.379 136.774 152.147C136.479 151.198 136.086 150.379 135.595 149.986C135.104 149.561 134.744 149.528 134.515 149.724ZM135.89 155.88C136.184 155.913 136.414 155.847 136.577 155.716C136.807 155.913 137.003 155.978 137.232 155.945C137.33 156.207 137.461 156.404 137.658 156.502C137.592 156.764 137.625 156.993 137.723 157.19C137.494 157.386 137.396 157.583 137.396 157.812C137.101 157.844 136.905 157.975 136.774 158.139C136.512 158.008 136.283 158.008 136.086 158.074C135.922 157.844 135.759 157.681 135.53 157.648C135.53 157.353 135.464 157.124 135.3 156.993C135.431 156.797 135.497 156.568 135.464 156.371C135.693 156.24 135.824 156.076 135.89 155.88Z" fill="#FAF6EB" stroke="#1C2628" stroke-width="2.13" stroke-linecap="round" stroke-linejoin="round"/>
<path fill-rule="evenodd" clip-rule="evenodd" d="M118.995 170.68C119.748 170.058 120.337 169.337 120.468 168.748C120.861 167.045 118.929 167.471 117.259 168.519C117.554 167.569 117.652 166.652 117.456 166.063C116.866 164.426 115.458 165.834 114.64 167.602C114.345 166.652 113.952 165.801 113.461 165.441C113.003 165.113 112.675 165.081 112.413 165.244C111.857 165.637 111.758 166.947 111.955 168.289C111.202 167.667 110.383 167.176 109.794 167.143C108.222 167.045 108.681 168.519 109.696 169.894C108.943 169.796 108.255 169.828 107.797 170.025C106.192 170.778 107.731 172.022 109.565 172.71C109.041 172.906 108.55 173.168 108.157 173.43C109.139 174.118 109.925 174.249 109.925 174.249C109.925 174.249 114.378 173.823 120.468 173.201C120.926 173.07 121.287 172.873 121.516 172.644C122.793 171.433 120.959 170.745 118.995 170.68ZM115.327 173.332C115.033 173.365 114.836 173.496 114.705 173.659C114.443 173.528 114.214 173.528 114.018 173.594C113.854 173.332 113.69 173.201 113.461 173.168C113.461 172.873 113.396 172.677 113.232 172.513C113.363 172.317 113.428 172.088 113.396 171.891C113.625 171.76 113.756 171.596 113.821 171.4C114.116 171.433 114.345 171.367 114.509 171.204C114.738 171.4 114.967 171.465 115.164 171.433C115.262 171.695 115.393 171.891 115.589 171.989C115.524 172.251 115.557 172.48 115.655 172.677C115.458 172.906 115.36 173.103 115.327 173.332Z" fill="#FAF6EB" stroke="#1C2628" stroke-width="2.13" stroke-linecap="round" stroke-linejoin="round"/>
<path fill-rule="evenodd" clip-rule="evenodd" d="M146.106 133.713C146.368 133.68 146.597 133.648 146.859 133.582C146.237 133.451 145.614 133.32 145.025 133.222C144.108 133.025 143.257 132.763 142.471 132.403C142.438 132.6 142.471 132.796 142.569 132.96C142.34 133.156 142.242 133.353 142.242 133.582C141.947 133.615 141.751 133.746 141.62 133.909C141.358 133.779 141.129 133.778 140.932 133.844C140.768 133.582 140.605 133.451 140.376 133.418C140.376 133.124 140.31 132.927 140.146 132.763C140.277 132.567 140.343 132.338 140.31 132.141C140.539 132.01 140.67 131.847 140.736 131.65C140.867 131.65 140.965 131.65 141.063 131.65C138.149 129.915 136.414 127.492 136.414 127.492L135.923 127.525C135.366 127.918 135.792 129.064 136.61 130.111C135.857 130.013 135.169 130.046 134.711 130.242C133.107 130.963 134.646 132.24 136.479 132.927C135.562 133.287 134.744 133.778 134.449 134.27C133.5 135.776 135.497 135.972 137.396 135.547C136.839 136.332 136.414 137.184 136.414 137.806C136.446 139.574 138.215 138.657 139.59 137.249C139.557 138.232 139.655 139.148 140.015 139.672C140.998 141.113 141.98 139.41 142.373 137.478C142.864 138.33 143.486 139.05 144.043 139.279C145.68 139.967 145.549 137.97 144.796 136.169C145.68 136.594 146.597 136.856 147.186 136.758C148.889 136.431 147.71 134.826 146.106 133.713Z" fill="#FAF6EB" stroke="#1C2628" stroke-width="2.13" stroke-linecap="round" stroke-linejoin="round"/>
<path d="M132.19 168.977C131.862 169.435 131.961 170.09 132.321 170.549C132.648 171.007 133.172 171.269 133.696 171.498C134.613 171.891 135.628 172.153 136.61 172.219" stroke="#1C2628" stroke-width="2.13" stroke-linecap="round" stroke-linejoin="round"/>
<path d="M148.692 142.848C148.79 144.322 149.675 145.73 150.984 146.417" stroke="#1C2628" stroke-width="2.13" stroke-linecap="round" stroke-linejoin="round"/>
<path d="M150.395 141.702C150.198 142.848 151.115 145.435 151.868 146.286" stroke="#1C2628" stroke-width="2.13" stroke-linecap="round" stroke-linejoin="round"/>
<path d="M106.781 150.15C106.781 151.132 105.963 152.016 105.013 152.147" stroke="#1C2628" stroke-width="2.13" stroke-linecap="round" stroke-linejoin="round"/>
<path d="M117.128 132.763C117.914 133.648 118.995 134.204 120.141 134.335C122.465 134.597 124.659 133.189 126.984 133.222C129.112 133.255 131.109 134.466 133.238 134.27" stroke="#1C2628" stroke-width="2.13" stroke-linecap="round" stroke-linejoin="round"/>
<path d="M118.831 130.341C118.7 130.766 119.158 131.126 119.584 131.29C122.694 132.502 126.198 130.406 129.472 130.963" stroke="#1C2628" stroke-width="2.13" stroke-linecap="round" stroke-linejoin="round"/>
<path fill-rule="evenodd" clip-rule="evenodd" d="M69.3237 121.958C66.0494 120.681 64.0848 116.49 65.2963 114.198C66.7697 111.35 73.3183 110.891 75.774 114.198C77.0182 115.868 77.4111 118.782 75.774 120.747C74.0714 122.81 71.0918 122.646 69.3237 121.958Z" fill="#FAF6EB"/>
<path fill-rule="evenodd" clip-rule="evenodd" d="M219.515 180.699C217.943 178.931 218.893 174.019 222.167 172.251C226.456 169.959 231.924 174.445 231.761 176.901C231.597 180.077 221.938 183.417 219.515 180.699Z" fill="#1C2628" stroke="#1C2628" stroke-width="2.13" stroke-linecap="round" stroke-linejoin="round"/>
<path fill-rule="evenodd" clip-rule="evenodd" d="M230.615 235.117C229.272 234.364 229.076 231.909 230.025 231.057C231.27 229.944 234.577 231.385 234.675 232.793C234.773 234.102 232.219 236.002 230.615 235.117Z" fill="#1C2628" stroke="#1C2628" stroke-width="2.13" stroke-linecap="round" stroke-linejoin="round"/>
<path d="M41.9834 130.864L30.2288 124.087L41.9834 117.276V130.864Z" fill="#1C2628" stroke="#1C2628" stroke-width="2.13" stroke-linecap="round" stroke-linejoin="round"/>
<path d="M155.47 101.658L177.768 88.7899L155.47 75.922V101.658Z" fill="#1C2628" stroke="#1C2628" stroke-width="2.13" stroke-linecap="round" stroke-linejoin="round"/>
<path d="M130.422 117.145C131.597 117.145 132.55 116.412 132.55 115.508C132.55 114.604 131.597 113.871 130.422 113.871C129.246 113.871 128.293 114.604 128.293 115.508C128.293 116.412 129.246 117.145 130.422 117.145Z" fill="#FAF6EB"/>
<path d="M116.997 113.871C118.176 113.871 119.125 114.591 119.125 115.508C119.125 116.425 118.176 117.145 116.997 117.145" fill="#FAF6EB"/>
<path d="M127.311 99.4641C127.311 99.4641 125.674 101.756 128.293 103.066C130.913 104.375 132.648 103.721 133.532 105.358C135.824 109.614 139.426 107.65 139.426 107.65" stroke="#FAF6EB" stroke-width="2.13" stroke-linecap="round" stroke-linejoin="round"/>
</svg>
