<svg width="434" height="392" viewBox="0 0 434 392" fill="none" xmlns="http://www.w3.org/2000/svg">
<path d="M384.475 355.822C347.798 372.461 280.796 345.582 231.862 337.803C182.927 330.271 152.601 342.086 142.312 328.745C132.023 315.404 141.82 277.004 124.737 245.054C107.654 213.104 63.298 187.8 46.8552 145.806C30.117 104.109 41.2922 45.6725 76.2947 18.2514C111.297 -8.92358 170.472 -5.42825 202.274 26.5713C234.372 58.2262 239.443 118.385 273.362 155.012C307.626 191.344 370.789 204.439 399.145 241.214C427.502 277.989 421.151 338.886 384.475 355.822Z" fill="#F55C4A"/>
<path d="M31.9877 80.4289C37.8461 70.1398 47.446 67.4814 63.938 73.1429C60.5904 65.6107 70.5841 50.7432 86.5346 66.4968C81.7593 41.2418 119.617 38.3373 117.746 62.7553C127.199 50.9401 152.207 57.6846 142.509 71.7644C157.13 68.1214 163.038 71.5183 172.638 80.4781H31.9877V80.4289Z" fill="#FAF6EB"/>
<path d="M144.331 116.268H86.6823C84.5162 108.835 85.8454 100.416 109.377 107.21C116.762 93.4748 131.137 107.161 144.331 116.268Z" fill="#FAF6EB"/>
<path d="M434 296.696H327.22C330.519 286.85 349.817 278.727 373.841 285.521C380.881 272.475 392.204 274.838 402.837 289.41C416.917 280.647 432.08 293.496 434 296.696Z" fill="#FAF6EB"/>
<path fill-rule="evenodd" clip-rule="evenodd" d="M322.346 303.589C313.042 306.542 317.768 314.813 315.405 323.527C314.962 325.151 314.322 326.628 313.682 328.105L313.14 329.287L314.617 331.157L312.107 331.6C312.107 331.6 311.86 332.142 311.762 332.437C311.024 334.456 310.482 336.573 310.679 339.034C311.22 346.812 318.556 352.129 326.679 350.751C329.977 350.209 332.143 349.126 333.669 348.092L333.325 344.056L336.278 344.892C336.278 344.892 337.952 340.757 337.46 336.671C336.771 331.108 333.62 324.659 332.192 320.13C330.469 314.567 331.946 300.536 322.346 303.589Z" fill="#FAF6EB"/>
<path fill-rule="evenodd" clip-rule="evenodd" d="M323.873 319.982L324.168 359.268L323.873 319.982Z" fill="#FAF6EB"/>
<path d="M323.873 319.982L324.168 359.268" stroke="#1C2628" stroke-width="2.13" stroke-linecap="round" stroke-linejoin="round"/>
<path d="M134.238 128.92C144.626 135.763 150.435 149.548 144.134 169.24C138.571 186.52 113.611 202.864 137.094 218.962C176.084 245.792 236.686 195.086 252.538 174.507C275.135 145.216 306.987 155.948 301.227 166.04C293.153 180.12 288.771 188.046 309.891 194.101C338.543 202.273 385.311 170.077 394.616 217.387C395.699 222.851 395.551 228.464 396.044 233.977" stroke="#1C2628" stroke-width="2.13" stroke-linecap="round" stroke-linejoin="round"/>
<path fill-rule="evenodd" clip-rule="evenodd" d="M182.927 165.695C173.475 171.307 163.826 176.674 154.521 182.581C132.614 196.464 145.118 221.867 139.605 229.842C125.722 250.026 98.6452 255.835 88.0607 278.678C80.6762 294.629 93.8206 310.53 106.079 319.047C108.442 320.721 111.1 322.985 113.956 322.69C119.519 322.099 123.999 317.324 129.512 316.536C139.309 315.108 149.451 317.816 159.247 316.191C179.973 312.647 199.813 305.016 220.44 301.078C237.178 297.878 254.409 297.73 271.196 294.826C275.922 293.989 281.535 286.26 283.11 283.158C285.768 277.89 287.935 272.278 289.313 266.518C293.251 250.519 297.288 227.676 288.821 212.267C280.796 197.744 259.923 208.624 252.292 195.972C243.972 182.187 230.237 164.021 210.89 164.711C205.72 164.908 200.601 166.138 195.481 166.877" fill="#FAF6EB"/>
<path fill-rule="evenodd" clip-rule="evenodd" d="M177.905 170.618C177.905 169.437 177.069 168.452 175.985 168.452C174.952 168.452 172.589 169.043 172.49 170.224C172.146 174.064 171.407 180.366 171.407 180.366C171.407 180.366 173.426 183.27 174.804 180.366C175.641 178.643 175.69 172.834 175.936 172.834C177.019 172.834 177.905 171.849 177.905 170.618Z" fill="#FAF6EB" stroke="#1C2628" stroke-width="2.13" stroke-linecap="round" stroke-linejoin="round"/>
<path fill-rule="evenodd" clip-rule="evenodd" d="M282.47 239.639L266.323 261.891L222.163 289.656L190.656 292.463L204.588 278.038L230.779 273.361L231.812 258.543L211.382 236.685L222.902 216.353L229.252 205.079C229.252 205.079 232.994 202.076 246.975 209.264C253.769 212.759 262.335 219.996 269.326 226.544C276.759 233.485 282.47 239.639 282.47 239.639Z" fill="#47584E" stroke="#1C2628" stroke-width="2.13" stroke-linecap="round" stroke-linejoin="round"/>
<path fill-rule="evenodd" clip-rule="evenodd" d="M269.276 226.544C269.079 229.35 268.341 231.417 267.061 232.057C264.796 233.19 261.99 229.103 252.194 225.362C250.224 224.624 249.929 224.624 242.594 222.654C227.037 218.421 224.034 217.19 222.902 216.353L229.252 205.079C229.252 205.079 232.994 202.076 246.975 209.264C253.72 212.808 262.286 220.045 269.276 226.544Z" fill="#1C2628" stroke="#1C2628" stroke-width="2.13" stroke-linecap="round" stroke-linejoin="round"/>
<path fill-rule="evenodd" clip-rule="evenodd" d="M175.69 160.625C171.013 158.557 172.244 150.089 178.595 145.412C184.896 140.736 195.234 143.345 197.844 143.197C212.514 142.459 217.437 157.72 212.613 172.784C211.234 177.166 199.419 188.095 194.644 185.24C189.77 182.335 199.271 168.354 195.136 165.154" fill="#FAF6EB"/>
<path fill-rule="evenodd" clip-rule="evenodd" d="M199.616 177.954L201.438 193.018L206.754 199.762C206.754 199.762 201.684 206.704 192.871 205.67C184.01 204.685 181.302 199.122 181.302 199.122L180.613 179.529L199.616 177.954Z" fill="#F45B49" stroke="#1C2628" stroke-width="2.13" stroke-linecap="round" stroke-linejoin="round"/>
<path fill-rule="evenodd" clip-rule="evenodd" d="M206.459 172.834C205.868 177.314 204.883 181.153 201.88 183.96C198.385 187.258 192.527 189.08 187.604 188.44C180.072 187.455 174.902 183.073 174.066 176.083C173.869 174.606 173.918 173.031 174.115 171.307C174.755 166.384 174.164 156.489 175.641 155.012C177.659 153.339 187.456 151.074 187.456 151.074C187.456 151.074 195.973 154.274 197.794 154.52C202.225 155.455 207.739 163.037 206.459 172.834Z" fill="#47584E" stroke="#1C2628" stroke-width="2.13" stroke-linecap="round" stroke-linejoin="round"/>
<path fill-rule="evenodd" clip-rule="evenodd" d="M184.502 165.794C182.878 167.763 178.496 171.406 179.235 172.686C180.17 174.36 183.912 172.44 184.256 172.046" fill="#47584E"/>
<path d="M184.502 165.794C182.878 167.763 178.496 171.406 179.235 172.686C180.17 174.36 183.912 172.44 184.256 172.046" stroke="#1C2628" stroke-width="2.13" stroke-linecap="round" stroke-linejoin="round"/>
<path fill-rule="evenodd" clip-rule="evenodd" d="M201.782 195.676L202.373 181.4C202.373 181.4 191.001 178.15 188.244 182.138C185.487 186.126 190.508 197.202 190.508 197.202L198.828 197.301" fill="#49574E"/>
<path fill-rule="evenodd" clip-rule="evenodd" d="M204.588 165.597C204.047 165.695 206.41 163.381 209.167 166.581C211.087 168.846 209.068 175.246 204.637 173.031" fill="#47584E"/>
<path d="M204.588 165.597C204.047 165.695 206.41 163.381 209.167 166.581C211.087 168.846 209.068 175.246 204.637 173.031" stroke="#1C2628" stroke-width="2.13" stroke-linecap="round" stroke-linejoin="round"/>
<path d="M207.148 168.354L207.05 168.748L206.754 169.388L206.213 169.978" stroke="#1C2628" stroke-width="2.13" stroke-linecap="round" stroke-linejoin="round"/>
<path fill-rule="evenodd" clip-rule="evenodd" d="M192.035 188.292L180.121 186.569L179.973 197.055C179.973 197.055 184.207 195.972 187.702 193.953C191.247 191.935 192.035 188.292 192.035 188.292Z" fill="#1C2628" stroke="#1C2628" stroke-width="2.13" stroke-linecap="round" stroke-linejoin="round"/>
<path fill-rule="evenodd" clip-rule="evenodd" d="M280.698 295.219C277.35 314.714 281.436 339.182 262.729 348.683C250.077 355.132 228.76 353.36 210.102 350.702C200.502 349.323 191.591 347.699 184.995 346.812C173.622 345.286 162.152 345.877 150.878 343.563C144.921 342.332 139.211 341.151 133.303 339.723C129.906 338.886 124.737 340.413 121.636 338.936C119.322 337.803 120.208 325.545 119.666 323.133C119.076 320.474 113.316 309.398 114.202 307.527C115.088 305.656 126.214 303.785 127.986 303.244C142.657 298.862 148.417 294.382 163.776 293.742C170.176 293.496 228.957 291.773 235.209 286.358C239.738 282.42 244.908 276.315 245.006 270.9C245.055 269.177 264.993 274.346 275.676 276.364C279.565 277.103 282.322 277.693 282.765 277.94C285.276 279.417 281.042 293.152 280.698 295.219Z" fill="#F3A140" stroke="#1C2628" stroke-width="2.13" stroke-linecap="round" stroke-linejoin="round"/>
<path fill-rule="evenodd" clip-rule="evenodd" d="M280.698 295.219C277.35 314.714 281.436 339.182 262.729 348.683C250.077 355.132 228.76 353.36 210.102 350.702C219.456 339.477 241.166 349.569 258.101 333.767C263.861 328.351 259.381 324.954 261.597 318.111C264.6 308.708 257.609 303.49 258.692 295.416C259.726 287.54 267.701 279.958 275.726 276.414C279.615 277.152 282.372 277.743 282.815 277.989C285.276 279.417 281.042 293.152 280.698 295.219Z" fill="#1C2628" stroke="#1C2628" stroke-width="2.13" stroke-linecap="round" stroke-linejoin="round"/>
<path fill-rule="evenodd" clip-rule="evenodd" d="M243.628 378.27C238.852 383.981 205.917 363.108 197.647 363.403C193.118 363.551 186.915 364.141 179.53 364.978C144.085 368.917 82.8917 378.024 65.6119 369.212C56.4551 364.535 50.6952 359.858 47.643 355.378C28.6894 327.564 110.411 304.425 110.411 304.425L120.75 326.776C120.75 326.776 178.644 323.576 199.321 326.48C209.413 327.908 221.376 331.699 221.376 331.797C221.573 336.425 248.403 372.51 243.628 378.27Z" fill="#47584E" stroke="#1C2628" stroke-width="2.13" stroke-linecap="round" stroke-linejoin="round"/>
<path fill-rule="evenodd" clip-rule="evenodd" d="M179.53 364.978C144.084 368.917 82.8915 378.024 65.6118 369.212C56.455 364.535 50.6951 359.858 47.6429 355.378C52.5659 351.243 59.7534 349.175 65.5626 350.948C72.4548 353.065 71.6179 358.972 78.1162 361.434C87.913 365.224 95.4452 353.951 109.919 353.852C119.617 353.803 121.045 361.975 131.235 361.729C137.586 361.581 139.457 358.825 145.955 357.348C157.475 354.689 167.469 359.563 173.081 362.024C174.607 362.664 177.019 363.698 179.53 364.978Z" fill="#1C2628" stroke="#1C2628" stroke-width="2.13" stroke-linecap="round" stroke-linejoin="round"/>
<path fill-rule="evenodd" clip-rule="evenodd" d="M245.006 270.949C245.006 270.949 269.227 173.08 312.599 197.202C342.826 213.99 307.676 305.902 308.956 339.526C309.251 347.846 338.297 359.957 331.995 363.846C325.645 367.784 274.79 357.791 270.212 356.905C270.113 356.905 268.981 339.969 268.981 329.828C268.981 308.955 269.522 274.051 269.522 274.051L245.006 270.949Z" fill="#47584E" stroke="#1C2628" stroke-width="2.13" stroke-linecap="round" stroke-linejoin="round"/>
<path fill-rule="evenodd" clip-rule="evenodd" d="M210.988 327.022L229.499 367.292L215.074 371.083C215.074 371.083 236.538 382.75 247.221 387.92C250.569 389.544 252.981 390.332 254.753 390.726L220.194 326.727L210.988 327.022Z" fill="#FAF6EB" stroke="#1C2628" stroke-width="2.13" stroke-linecap="round" stroke-linejoin="round"/>
<path fill-rule="evenodd" clip-rule="evenodd" d="M225.806 326.48L220.194 326.677L254.754 390.676C258.643 391.464 259.332 390.086 259.332 390.086L225.806 326.48Z" fill="#1C2628" stroke="#1C2628" stroke-width="2.13" stroke-linecap="round" stroke-linejoin="round"/>
<path fill-rule="evenodd" clip-rule="evenodd" d="M337.706 361.581C329.14 353.36 309.793 339.28 309.793 339.28L312.156 352.129L267.947 348.782L267.849 357.742L343.269 368.277C342.432 366.701 340.758 364.535 337.706 361.581Z" fill="#FAF6EB" stroke="#1C2628" stroke-width="2.13" stroke-linecap="round" stroke-linejoin="round"/>
<path fill-rule="evenodd" clip-rule="evenodd" d="M267.898 357.84L267.849 361.778L344.007 372.215C344.007 372.215 344.943 371.23 343.318 368.326L267.898 357.84Z" fill="#1C2628" stroke="#1C2628" stroke-width="2.13" stroke-linecap="round" stroke-linejoin="round"/>
<path fill-rule="evenodd" clip-rule="evenodd" d="M237.326 287.392C237.326 287.392 215.616 297.139 198.237 299.109C180.859 301.078 163.973 293.89 163.973 293.89L165.943 261.645L158.804 255.885L145.66 290.099C145.66 290.099 122.866 337.114 100.467 321.853C78.067 306.641 77.6732 257.509 75.9009 250.371C74.7194 245.645 74.8179 227.971 73.144 213.547C72.2579 206.261 72.5041 202.815 72.5041 202.815C72.5041 202.815 75.6056 199.959 78.904 206.556L79.6424 215.122L82.0547 222.556C82.0547 222.556 92.1468 216.205 96.7744 217.879C101.451 219.553 101.501 226.888 101.501 227.036C101.501 227.036 100.713 228.857 97.759 227.38C96.2821 226.642 94.2637 222.95 94.2637 222.95L89.9315 228.168L90.9653 235.799L95.396 233.485C95.396 233.485 96.2822 231.565 97.956 230.039C99.6298 228.464 102.042 229.35 102.042 229.35L100.368 238.014L93.8206 243.38L107.999 283.995C107.999 283.995 108.294 283.503 108.836 282.617C111.987 277.25 123.26 257.312 128.823 237.128C134.238 217.633 147.875 211.922 152.404 210.544C153.34 210.248 153.881 210.15 153.881 210.15L223.788 208.722L227.775 256.18L237.326 287.392Z" fill="#47584E" stroke="#1C2628" stroke-width="2.13" stroke-linecap="round" stroke-linejoin="round"/>
<path fill-rule="evenodd" clip-rule="evenodd" d="M155.457 220.685C149.795 226.199 140.589 231.614 137.685 237.128C134.042 243.922 136.7 246.186 133.5 258.986C131.826 265.731 130.349 271.441 125.869 276.955C122.374 281.189 115.236 287.49 111.002 285.472C110.362 285.176 109.525 284.536 108.787 282.617C111.937 277.25 123.211 257.312 128.774 237.128C134.189 217.633 147.826 211.922 152.355 210.544C152.601 210.396 152.897 210.248 153.143 210.15L155.457 220.685Z" fill="#1C2628" stroke="#1C2628" stroke-width="2.13" stroke-linecap="round" stroke-linejoin="round"/>
<path d="M73.4886 247.959C41.9814 265.928 102.83 266.961 104.651 245.152" stroke="#1C2628" stroke-width="2.13" stroke-linecap="round" stroke-linejoin="round"/>
<path fill-rule="evenodd" clip-rule="evenodd" d="M233.191 252.931C232.108 253.866 230.729 254.506 229.006 254.851C224.034 255.934 198.09 258.592 180.613 260.365C180.465 260.365 180.268 260.414 180.121 260.414C170.964 261.349 164.269 261.989 164.269 261.989C164.269 261.989 163.087 261.792 161.61 260.758C159.296 259.183 156.244 255.589 155.801 247.663C155.457 241.756 157.081 228.217 157.081 228.217L155.457 220.734L153.143 210.199V210.101C153.143 210.101 165.647 207.492 172.047 203.405C178.496 199.319 178.841 193.806 178.841 193.806L203.308 191.787L204.047 191.738C204.047 191.738 206.705 195.332 211.037 197.99C211.726 198.384 212.416 198.778 213.154 199.122C214.336 199.664 215.616 200.107 216.994 200.353C217.88 200.55 218.816 200.698 219.751 200.895C226.249 202.175 233.634 203.652 233.634 203.652L227.332 219.701C227.332 219.701 232.649 228.414 234.175 233.436C237.129 243.233 236.981 249.731 233.191 252.931Z" fill="#F3A140" stroke="#1C2628" stroke-width="2.13" stroke-linecap="round" stroke-linejoin="round"/>
<path d="M270.556 261.595L269.178 278.137" stroke="#1C2628" stroke-width="2.13" stroke-linecap="round" stroke-linejoin="round"/>
<path d="M142.066 295.121C148.417 292.906 158.903 291.823 158.903 291.823C158.903 291.823 158.066 298.813 174.755 301.915C191.444 305.016 204.637 302.899 204.637 302.899" stroke="#1C2628" stroke-width="2.13" stroke-linecap="round" stroke-linejoin="round"/>
<path fill-rule="evenodd" clip-rule="evenodd" d="M183.37 137.93C183.37 133.893 186.865 130.594 191.198 130.594C195.53 130.594 199.025 133.893 199.025 137.93C199.025 141.966 195.53 145.265 191.198 145.265C186.865 145.216 183.37 141.966 183.37 137.93Z" fill="#FAF6EB"/>
<path fill-rule="evenodd" clip-rule="evenodd" d="M175.69 165.597C177.364 166.434 179.579 165.892 181.105 164.858L175.69 165.597Z" fill="#47584E"/>
<path d="M175.69 165.597C177.364 166.434 179.579 165.892 181.105 164.858" stroke="#1C2628" stroke-width="2.13" stroke-linecap="round" stroke-linejoin="round"/>
<path fill-rule="evenodd" clip-rule="evenodd" d="M191.05 164.268C193.954 165.695 195.333 164.908 198.139 163.578L191.05 164.268Z" fill="#47584E"/>
<path d="M191.05 164.268C193.954 165.695 195.333 164.908 198.139 163.578" stroke="#1C2628" stroke-width="2.13" stroke-linecap="round" stroke-linejoin="round"/>
<path d="M96.7745 330.468C92.6391 330.222 88.0608 332.093 84.3193 334.062C82.8916 334.8 79.0024 337.508 80.4301 336.819C97.0698 328.597 116.122 325.742 134.386 325.299" stroke="#1C2628" stroke-width="2.13" stroke-linecap="round" stroke-linejoin="round"/>
<path d="M86.0424 360.252C87.2239 368.326 100.713 363.895 105.193 362.664C114.202 360.105 123.113 356.757 132.368 354.985C146.005 352.326 159.74 354.049 173.032 357.446" stroke="#1C2628" stroke-width="2.13" stroke-linecap="round" stroke-linejoin="round"/>
<path d="M144.626 360.745C151.174 359.465 155.21 360.745 161.856 361.237" stroke="#1C2628" stroke-width="2.13" stroke-linecap="round" stroke-linejoin="round"/>
<path d="M313.042 220.39C310.039 226.199 302.9 236.537 308.02 243.528C312.5 249.682 316.98 238.359 315.454 237.719C313.928 237.079 313.829 240.623 313.288 242.199C311.811 246.285 310.334 250.42 309.399 254.654C307.282 264.451 305.805 288.869 305.116 297.73" stroke="#1C2628" stroke-width="2.13" stroke-linecap="round" stroke-linejoin="round"/>
<path d="M310.531 276.561C310.531 288.869 306.248 307.724 305.362 313.976" stroke="#1C2628" stroke-width="2.13" stroke-linecap="round" stroke-linejoin="round"/>
<path fill-rule="evenodd" clip-rule="evenodd" d="M76.2455 232.55C76.8363 228.463 79.5439 224.87 82.6947 222.507L76.2455 232.55Z" fill="#47584E"/>
<path d="M76.2455 232.55C76.8363 228.463 79.5439 224.87 82.6947 222.507" stroke="#1C2628" stroke-width="2.13" stroke-linecap="round" stroke-linejoin="round"/>
<path fill-rule="evenodd" clip-rule="evenodd" d="M186.472 141.031H195.628C196.859 141.031 197.844 142.016 197.844 143.246C197.844 144.477 196.859 145.462 195.628 145.462H186.472C185.241 145.462 184.256 144.477 184.256 143.246C184.256 142.016 185.241 141.031 186.472 141.031Z" fill="#F45B49" stroke="#1C2628" stroke-width="2.13" stroke-linecap="round" stroke-linejoin="round"/>
<path fill-rule="evenodd" clip-rule="evenodd" d="M195.727 267.208C197.45 268.094 224.477 284.34 224.477 284.34C229.4 287.786 225.905 290.887 222.459 295.859L219.849 299.699C216.403 304.622 210.2 299.355 205.277 295.859L184.502 282.715C181.105 279.17 194.004 266.371 195.727 267.208Z" fill="#1C2628" stroke="#1C2628" stroke-width="2.13" stroke-linecap="round" stroke-linejoin="round"/>
<path fill-rule="evenodd" clip-rule="evenodd" d="M237.08 246.826L242.692 264.205C237.523 271.884 224.428 275.97 224.428 275.97C224.428 275.97 210.89 276.217 207.247 279.515C203.407 283.01 220.637 281.09 219.062 282.173C215.911 284.34 211.037 287.835 211.037 287.835L202.028 290.001C202.028 290.001 191.739 287.736 189.179 287.343C186.619 286.949 184.256 289.41 184.256 289.41C184.256 289.41 198.631 296.253 203.16 295.909C223.197 294.333 229.942 291.429 229.942 291.429L239.738 287.54L245.252 272.081" fill="#47584E"/>
<path d="M237.08 246.826L242.692 264.205C237.523 271.884 224.428 275.97 224.428 275.97C224.428 275.97 210.89 276.217 207.247 279.515C203.407 283.01 220.637 281.09 219.062 282.173C215.911 284.34 211.037 287.835 211.037 287.835L202.028 290.001C202.028 290.001 191.739 287.736 189.179 287.343C186.619 286.949 184.256 289.41 184.256 289.41C184.256 289.41 198.631 296.253 203.16 295.909C223.197 294.333 229.942 291.429 229.942 291.429L239.738 287.54L245.252 272.081" stroke="#FAF6EB" stroke-width="2.13" stroke-linecap="round" stroke-linejoin="round"/>
<path d="M245.055 271.146L234.372 301.718" stroke="#1C2628" stroke-width="2.13" stroke-linecap="round" stroke-linejoin="round"/>
<path d="M215.074 315.601C216.206 320.13 221.819 323.92 224.674 327.76" stroke="#1C2628" stroke-width="2.13" stroke-linecap="round" stroke-linejoin="round"/>
<path fill-rule="evenodd" clip-rule="evenodd" d="M205.13 168.354C205.13 167.172 205.967 166.188 207.05 166.188C208.083 166.188 210.447 166.778 210.545 167.96C210.89 171.8 211.628 178.101 211.628 178.101C211.628 178.101 209.61 181.006 208.231 178.101C207.394 176.378 207.345 170.569 207.05 170.569C206.016 170.52 205.13 169.535 205.13 168.354Z" fill="#FAF6EB" stroke="#1C2628" stroke-width="2.13" stroke-linecap="round" stroke-linejoin="round"/>
<path d="M3.5328 260.266C0.972843 272.672 1.0713 287.441 8.11119 297.927C15.2003 308.512 28.6401 316.881 41.4399 316.782C63.4457 316.684 82.547 296.302 104.504 297.435C115.285 297.976 119.273 313.238 126.657 321.114" stroke="#1C2628" stroke-width="2.13" stroke-linecap="round" stroke-linejoin="round"/>
<path d="M310.531 179.578C322.346 199.319 379.552 157.622 402.099 197.793" stroke="#1C2628" stroke-width="2.13" stroke-linecap="round" stroke-linejoin="round"/>
<path d="M335.638 203.898C357.743 203.996 380.93 191.886 385.705 226.1" stroke="#1C2628" stroke-width="2.13" stroke-linecap="round" stroke-linejoin="round"/>
<path d="M126.362 133.056C132.565 138.717 136.257 144.625 138.029 155.948" stroke="#1C2628" stroke-width="2.13" stroke-linecap="round" stroke-linejoin="round"/>
<path d="M126.952 145.216C137.734 163.825 127.691 175.197 121.488 188.44" stroke="#1C2628" stroke-width="2.13" stroke-linecap="round" stroke-linejoin="round"/>
<path d="M13.3296 293.102C21.6002 307.281 39.7168 311.416 53.3536 309.201" stroke="#1C2628" stroke-width="2.13" stroke-linecap="round" stroke-linejoin="round"/>
<path d="M14.3141 315.601C30.8554 331.551 52.3197 323.822 63.741 320.376" stroke="#1C2628" stroke-width="2.13" stroke-linecap="round" stroke-linejoin="round"/>
<path d="M269.375 343.809C269.375 343.809 265.535 347.748 261.646 349.176C257.806 350.652 249.831 352.523 246.778 352.72" stroke="#1C2628" stroke-width="2.13" stroke-linecap="round" stroke-linejoin="round"/>
<path fill-rule="evenodd" clip-rule="evenodd" d="M235.308 263.663C228.908 268.684 224.428 269.177 221.425 268.635C218.274 268.044 217.388 266.469 212.416 264.598C210.988 264.057 206.262 262.383 200.798 262.235C191.05 261.989 186.422 266.764 182.829 264.106C181.992 263.515 181.106 262.432 180.613 260.315C198.09 258.592 224.034 255.885 229.006 254.802C230.729 254.457 232.108 253.817 233.191 252.882C234.717 256.771 235.16 260.808 235.308 263.663Z" fill="#1C2628" stroke="#1C2628" stroke-width="2.13" stroke-linecap="round" stroke-linejoin="round"/>
<path fill-rule="evenodd" clip-rule="evenodd" d="M232.551 271.835L227.677 255.097C227.677 255.097 232.698 254.162 233.929 252.931C235.16 251.7 236.588 247.072 236.588 247.072L242.348 264.155C242.348 264.155 240.772 267.06 237.72 268.783C234.618 270.555 232.551 271.835 232.551 271.835Z" fill="#1C2628"/>
<path fill-rule="evenodd" clip-rule="evenodd" d="M254.507 327.367C255.787 328.056 252.932 333.274 249.289 335.293C246.63 336.77 243.824 336.425 244.267 334.653C244.563 333.471 246.187 332.043 247.024 331.305C249.535 329.09 253.473 326.825 254.507 327.367Z" fill="#1C2628" stroke="#1C2628" stroke-width="2.13" stroke-linecap="round" stroke-linejoin="round"/>
<path fill-rule="evenodd" clip-rule="evenodd" d="M255.295 314.665C254.261 313.927 255.098 310.382 256.477 310.038C256.969 309.939 257.51 310.284 257.757 310.431C258.446 310.875 258.938 311.711 258.889 312.499C258.741 314.222 256.132 315.305 255.295 314.665Z" fill="#1C2628" stroke="#1C2628" stroke-width="2.13" stroke-linecap="round" stroke-linejoin="round"/>
<path d="M96.2821 80.4289H172.638" stroke="#1C2628" stroke-width="2.13" stroke-linecap="round" stroke-linejoin="round"/>
<path d="M130.3 87.0257H184.256" stroke="#1C2628" stroke-width="2.13" stroke-linecap="round" stroke-linejoin="round"/>
<path d="M79.4947 116.268H124.048" stroke="#1C2628" stroke-width="2.13" stroke-linecap="round" stroke-linejoin="round"/>
<path d="M96.2821 120.699H136.109" stroke="#1C2628" stroke-width="2.13" stroke-linecap="round" stroke-linejoin="round"/>
<path d="M40.1599 297.041L40.4061 296.992L39.8646 312.401C38.9292 311.81 37.5015 311.711 36.1231 312.253C34.1046 313.09 32.9724 314.961 33.6123 316.438C34.2031 317.964 36.32 318.505 38.3384 317.717C40.3569 316.93 41.4891 315.059 40.8492 313.533C40.8492 313.484 40.7999 313.434 40.7507 313.385L41.2922 296.795L56.7504 293.398L56.2089 308.61C55.2735 307.97 53.7966 307.871 52.4182 308.413C50.3998 309.201 49.2675 311.071 49.8582 312.598C50.449 314.124 52.5659 314.665 54.5843 313.878C56.6028 313.09 57.735 311.219 57.0951 309.693L57.0458 309.644L57.5874 293.201L71.4702 290.149L70.9779 304.327C70.0425 303.736 68.6149 303.588 67.1872 304.179C65.1688 304.967 64.0365 306.838 64.6765 308.364C65.2672 309.89 67.3841 310.431 69.4026 309.644C71.421 308.856 72.5533 306.985 71.9133 305.459C71.9133 305.41 71.8641 305.41 71.8641 305.361L72.4056 290.001L72.701 289.952L72.8979 284.93L40.1599 292.807V297.041Z" fill="#1C2628" stroke="#1C2628" stroke-width="2.13" stroke-linecap="round" stroke-linejoin="round"/>
<path d="M22.831 287.244C18.548 288.967 15.1019 289.213 12.5419 288.032C12.0988 287.835 11.705 287.539 11.3604 287.293C12.9357 287.49 14.5603 286.85 15.5449 285.472C16.9726 283.453 16.5295 280.647 14.5111 279.22C12.4927 277.792 9.68656 278.235 8.25889 280.253C6.88045 282.173 7.27429 284.733 8.99734 286.26C9.68656 287.293 10.7204 288.327 12.0988 288.967C14.5603 290.149 17.7603 290.05 21.6002 288.77L5.05894 311.859L5.89585 312.45L23.3725 288.032C23.5202 287.835 23.5202 287.589 23.3725 287.441C23.274 287.244 23.0279 287.146 22.831 287.244Z" fill="#1C2628" stroke="#1C2628" stroke-width="2.13" stroke-linecap="round" stroke-linejoin="round"/>
<path d="M343.072 193.904C343.072 193.904 328.599 202.027 339.921 210.298C335.934 201.929 347.207 194.249 347.207 194.249C341.201 187.898 347.503 187.553 351.047 182.04C356.709 173.277 347.995 172.095 347.995 172.095C352.475 178.2 342.334 179.923 339.528 185.289C336.968 190.212 339.971 192.476 343.072 193.904Z" fill="#1C2628" stroke="#1C2628" stroke-width="2.13" stroke-linecap="round" stroke-linejoin="round"/>
<path fill-rule="evenodd" clip-rule="evenodd" d="M168.06 214.482C167.518 214.827 167.42 216.156 167.616 217.387C166.878 216.796 166.09 216.304 165.549 216.254C164.023 216.156 164.466 217.584 165.45 218.913C164.712 218.814 164.072 218.864 163.629 219.061C162.103 219.75 163.58 220.981 165.352 221.67C164.466 222.014 163.678 222.507 163.383 222.999C162.497 224.427 164.367 224.624 166.238 224.23C165.696 225.017 165.303 225.805 165.303 226.396C165.352 228.07 167.026 227.233 168.355 225.854C168.306 226.79 168.453 227.676 168.749 228.168C169.684 229.547 170.669 227.922 171.013 226.051C171.506 226.839 172.096 227.577 172.638 227.774C174.213 228.414 174.066 226.494 173.376 224.771C174.213 225.165 175.099 225.46 175.69 225.362C177.364 225.067 176.232 223.491 174.656 222.457C175.592 222.359 176.478 222.064 176.872 221.67C178.102 220.488 176.281 219.848 174.41 219.799C175.149 219.208 175.69 218.47 175.838 217.928C176.232 216.254 174.361 216.698 172.736 217.682C172.983 216.796 173.13 215.861 172.933 215.319C172.343 213.744 171.013 215.122 170.226 216.796C169.979 215.91 169.536 215.073 169.093 214.728C168.65 214.335 168.306 214.285 168.06 214.482ZM169.438 220.39C169.684 220.439 169.93 220.341 170.078 220.193C170.275 220.39 170.521 220.439 170.718 220.39C170.816 220.636 170.964 220.833 171.112 220.931C171.013 221.177 171.063 221.424 171.161 221.621C170.964 221.817 170.866 222.014 170.866 222.211C170.57 222.261 170.373 222.359 170.275 222.556C170.029 222.457 169.783 222.408 169.586 222.507C169.438 222.261 169.241 222.162 169.044 222.113C169.044 221.817 168.995 221.621 168.798 221.473C168.946 221.276 168.995 221.079 168.946 220.882C169.241 220.734 169.34 220.587 169.438 220.39Z" fill="#FAF6EB" stroke="#1C2628" stroke-width="2.13" stroke-linecap="round" stroke-linejoin="round"/>
<path fill-rule="evenodd" clip-rule="evenodd" d="M201.24 225.116C200.404 225.707 200.256 227.676 200.551 229.694C199.419 228.759 198.188 228.02 197.302 227.971C194.939 227.824 195.628 230.039 197.154 232.107C196.022 231.959 194.988 232.008 194.348 232.303C191.936 233.387 194.25 235.306 197.007 236.34C195.628 236.882 194.398 237.62 193.954 238.408C192.527 240.623 195.53 240.968 198.385 240.328C197.548 241.509 196.908 242.789 196.908 243.725C196.957 246.383 199.616 245.005 201.684 242.888C201.634 244.365 201.782 245.743 202.324 246.531C203.8 248.697 205.277 246.137 205.868 243.233C206.607 244.512 207.542 245.596 208.379 245.94C210.791 246.974 210.643 243.971 209.511 241.263C210.84 241.903 212.219 242.297 213.105 242.149C215.714 241.657 213.893 239.245 211.48 237.571C212.957 237.374 214.286 236.98 214.976 236.34C216.896 234.519 214.089 233.485 211.136 233.387C212.268 232.451 213.154 231.368 213.4 230.482C213.991 227.922 211.086 228.562 208.576 230.137C209.019 228.71 209.167 227.331 208.871 226.445C207.985 223.984 205.868 226.1 204.637 228.759C204.194 227.331 203.604 226.1 202.865 225.51C202.127 224.87 201.585 224.82 201.24 225.116ZM203.308 234.371C203.751 234.42 204.096 234.322 204.342 234.125C204.687 234.42 204.982 234.519 205.327 234.47C205.474 234.863 205.671 235.159 205.967 235.306C205.868 235.7 205.917 236.045 206.065 236.34C205.72 236.636 205.573 236.931 205.573 237.276C205.13 237.325 204.834 237.522 204.637 237.768C204.244 237.571 203.899 237.571 203.604 237.67C203.357 237.325 203.111 237.079 202.767 237.03C202.767 236.586 202.668 236.242 202.422 236.045C202.619 235.75 202.717 235.405 202.668 235.11C203.013 234.913 203.21 234.666 203.308 234.371Z" fill="#FAF6EB" stroke="#1C2628" stroke-width="2.13" stroke-linecap="round" stroke-linejoin="round"/>
<path fill-rule="evenodd" clip-rule="evenodd" d="M177.906 256.623C179.038 255.688 179.924 254.605 180.121 253.718C180.712 251.159 177.807 251.799 175.296 253.374C175.739 251.946 175.887 250.568 175.592 249.682C174.706 247.22 172.589 249.337 171.358 251.995C170.915 250.568 170.324 249.288 169.586 248.746C168.896 248.254 168.404 248.205 168.01 248.451C167.173 249.042 167.026 251.011 167.321 253.029C166.189 252.094 164.958 251.355 164.072 251.306C161.709 251.159 162.398 253.374 163.924 255.442C162.792 255.294 161.758 255.343 161.069 255.638C158.657 256.771 160.97 258.642 163.727 259.675C162.94 259.971 162.201 260.365 161.61 260.758C163.087 261.792 164.269 261.989 164.269 261.989C164.269 261.989 170.964 261.349 180.121 260.414C180.81 260.217 181.352 259.921 181.696 259.577C183.616 257.755 180.859 256.722 177.906 256.623ZM172.392 260.611C171.949 260.66 171.653 260.857 171.456 261.103C171.063 260.906 170.718 260.906 170.423 261.005C170.176 260.611 169.93 260.414 169.586 260.365C169.586 259.921 169.487 259.626 169.241 259.38C169.438 259.085 169.536 258.74 169.487 258.445C169.832 258.248 170.029 258.002 170.127 257.706C170.57 257.755 170.915 257.657 171.161 257.411C171.506 257.706 171.85 257.805 172.146 257.755C172.293 258.149 172.49 258.445 172.786 258.592C172.687 258.986 172.736 259.331 172.884 259.626C172.589 259.971 172.441 260.266 172.392 260.611Z" fill="#FAF6EB" stroke="#1C2628" stroke-width="2.13" stroke-linecap="round" stroke-linejoin="round"/>
<path fill-rule="evenodd" clip-rule="evenodd" d="M218.668 201.042C219.062 200.993 219.406 200.944 219.8 200.845C218.865 200.649 217.929 200.452 217.043 200.304C215.665 200.009 214.385 199.615 213.203 199.073C213.154 199.369 213.203 199.664 213.351 199.91C213.006 200.205 212.859 200.501 212.859 200.845C212.416 200.895 212.12 201.092 211.923 201.338C211.53 201.141 211.185 201.141 210.89 201.239C210.643 200.845 210.397 200.649 210.053 200.599C210.053 200.156 209.954 199.861 209.708 199.615C209.905 199.319 210.003 198.975 209.954 198.679C210.299 198.482 210.496 198.236 210.594 197.941C210.791 197.941 210.939 197.941 211.087 197.941C206.705 195.332 204.096 191.689 204.096 191.689L203.357 191.738C202.521 192.329 203.161 194.052 204.391 195.627C203.259 195.479 202.225 195.529 201.536 195.824C199.124 196.907 201.437 198.827 204.194 199.861C202.816 200.402 201.585 201.141 201.142 201.879C199.714 204.144 202.717 204.439 205.573 203.799C204.736 204.981 204.096 206.261 204.096 207.196C204.145 209.855 206.804 208.476 208.871 206.359C208.822 207.836 208.97 209.215 209.511 210.002C210.988 212.168 212.465 209.608 213.056 206.704C213.794 207.984 214.73 209.067 215.566 209.411C218.028 210.445 217.831 207.442 216.699 204.735C218.028 205.375 219.406 205.768 220.293 205.621C222.853 205.128 221.08 202.716 218.668 201.042Z" fill="#FAF6EB" stroke="#1C2628" stroke-width="2.13" stroke-linecap="round" stroke-linejoin="round"/>
<path d="M197.745 254.063C197.253 254.752 197.401 255.737 197.942 256.426C198.434 257.115 199.222 257.509 200.01 257.854C201.388 258.445 202.914 258.838 204.391 258.937" stroke="#1C2628" stroke-width="2.13" stroke-linecap="round" stroke-linejoin="round"/>
<path d="M222.557 214.778C222.705 216.993 224.034 219.11 226.003 220.144" stroke="#1C2628" stroke-width="2.13" stroke-linecap="round" stroke-linejoin="round"/>
<path d="M225.117 213.055C224.822 214.778 226.2 218.667 227.332 219.947" stroke="#1C2628" stroke-width="2.13" stroke-linecap="round" stroke-linejoin="round"/>
<path d="M159.543 225.756C159.543 227.233 158.312 228.562 156.884 228.759" stroke="#1C2628" stroke-width="2.13" stroke-linecap="round" stroke-linejoin="round"/>
<path d="M175.099 199.615C176.281 200.944 177.905 201.781 179.629 201.978C183.124 202.372 186.422 200.255 189.918 200.304C193.118 200.353 196.121 202.175 199.321 201.879" stroke="#1C2628" stroke-width="2.13" stroke-linecap="round" stroke-linejoin="round"/>
<path d="M177.659 195.972C177.462 196.612 178.152 197.153 178.792 197.399C183.468 199.221 188.736 196.07 193.659 196.907" stroke="#1C2628" stroke-width="2.13" stroke-linecap="round" stroke-linejoin="round"/>
<path fill-rule="evenodd" clip-rule="evenodd" d="M103.224 183.369C98.3006 181.449 95.3468 175.147 97.1683 171.701C99.3837 167.418 109.23 166.729 112.922 171.701C114.793 174.212 115.383 178.594 112.922 181.547C110.362 184.649 105.882 184.403 103.224 183.369Z" fill="#FAF6EB"/>
<path fill-rule="evenodd" clip-rule="evenodd" d="M329.042 271.687C326.679 269.029 328.106 261.645 333.029 258.986C339.478 255.54 347.7 262.285 347.454 265.977C347.207 270.752 332.685 275.774 329.042 271.687Z" fill="#1C2628" stroke="#1C2628" stroke-width="2.13" stroke-linecap="round" stroke-linejoin="round"/>
<path fill-rule="evenodd" clip-rule="evenodd" d="M345.731 353.508C343.712 352.375 343.417 348.683 344.844 347.403C346.715 345.729 351.687 347.896 351.835 350.012C351.983 351.982 348.143 354.837 345.731 353.508Z" fill="#1C2628" stroke="#1C2628" stroke-width="2.13" stroke-linecap="round" stroke-linejoin="round"/>
<path d="M62.1165 196.759L44.4429 186.569L62.1165 176.329V196.759Z" fill="#1C2628" stroke="#1C2628" stroke-width="2.13" stroke-linecap="round" stroke-linejoin="round"/>
<path d="M232.748 152.846L266.273 133.499L232.748 114.151V152.846Z" fill="#1C2628" stroke="#1C2628" stroke-width="2.13" stroke-linecap="round" stroke-linejoin="round"/>
<path d="M195.087 176.132C196.854 176.132 198.287 175.03 198.287 173.671C198.287 172.311 196.854 171.209 195.087 171.209C193.319 171.209 191.887 172.311 191.887 173.671C191.887 175.03 193.319 176.132 195.087 176.132Z" fill="#FAF6EB"/>
<path d="M174.902 171.209C176.675 171.209 178.102 172.292 178.102 173.671C178.102 175.049 176.675 176.132 174.902 176.132" fill="#FAF6EB"/>
<path d="M190.41 149.548C190.41 149.548 187.948 152.994 191.887 154.963C195.825 156.932 198.434 155.948 199.764 158.409C203.21 164.809 208.625 161.855 208.625 161.855" stroke="#FAF6EB" stroke-width="2.13" stroke-linecap="round" stroke-linejoin="round"/>
</svg>
